<svg id="Layer_1" data-name="Layer 1" xmlns="http://www.w3.org/2000/svg" viewBox="0 0 512 512"><title>open-email</title><circle cx="256" cy="256" r="256" fill="#f8bf0e"/><path d="M365.08,395.76H146.92a27.35,27.35,0,0,1-27.27-27.27V226a27.49,27.49,0,0,1,11.59-22.5L256,116.24l124.76,87.26c7.5,4.77,11.59,13.63,11.59,22.5V368.49A27.35,27.35,0,0,1,365.08,395.76Z" fill="#00a0a8"/><rect x="174.19" y="191.23" width="163.62" height="149.98" fill="#f8c027"/><path d="M365.08,395.76H146.92a27.35,27.35,0,0,1-27.27-27.27V232.14L256,320.77l136.35-88.63V368.49A27.35,27.35,0,0,1,365.08,395.76Z" fill="#004b75"/></svg>