<?xml version="1.0" encoding="utf-8"?>
<!-- Svg Vector Icons : http://www.onlinewebfonts.com/icon -->
<!DOCTYPE svg PUBLIC "-//W3C//DTD SVG 1.1//EN" "http://www.w3.org/Graphics/SVG/1.1/DTD/svg11.dtd">
<svg version="1.1" xmlns="http://www.w3.org/2000/svg" xmlns:xlink="http://www.w3.org/1999/xlink" x="0px" y="0px" viewBox="0 0 1000 1000" enable-background="new 0 0 1000 1000" xml:space="preserve">
<metadata> Svg Vector Icons : http://www.onlinewebfonts.com/icon </metadata>
<g><path d="M500,77.3C266.6,77.3,77.3,266.6,77.3,500S266.6,922.7,500,922.7S922.7,733.4,922.7,500C922.7,266.6,733.4,77.3,500,77.3z M757,763.7H243.5v-14.5l372.9-490.8H505.5c-65.1,0-114.6,19.8-148.8,59.4c-13.9,15.6-24.9,31.2-33,46.7c-8.2,15.6-17.7,39-28.6,70.1h-13V245.4h458.2v13.7L369.3,750h165.8c58.1,0,104.3-20.3,138.4-60.8c15.6-18.8,28.1-37.7,37.7-56.6c9.5-18.9,20.2-46.9,32.1-84H757V763.7z" fill="#ddd"/></g>
</svg>